<?xml version="1.0" encoding="UTF-8" standalone="no"?>
<svg width="48px" height="48px" viewBox="0 0 48 48" version="1.1" xmlns="http://www.w3.org/2000/svg" xmlns:xlink="http://www.w3.org/1999/xlink" xmlns:sketch="http://www.bohemiancoding.com/sketch/ns">
    <!-- Generator: Sketch 3.2.2 (9983) - http://www.bohemiancoding.com/sketch -->
    <title>Untitled</title>
    <desc>Created with Sketch.</desc>
    <defs></defs>
    <g id="Page-1" stroke="none" stroke-width="1" fill="none" fill-rule="evenodd" sketch:type="MSPage">
        <g id="cc" sketch:type="MSLayerGroup">
            <g id="Group" sketch:type="MSShapeGroup">
                <circle id="Oval" fill="#000000" cx="24.2104615" cy="24.0007385" r="21.2942769"></circle>
                <path d="M23.9564308,0.369230769 C30.5664,0.369230769 36.1942154,2.67692308 40.8354462,7.29009231 C43.0567385,9.51212308 44.7456,12.0516923 45.8990769,14.9065846 C47.0518154,17.7622154 47.6300308,20.7928615 47.6300308,24 C47.6300308,27.2352 47.0592,30.2665846 45.9212308,33.0926769 C44.7817846,35.9195077 43.1003077,38.4169846 40.8790154,40.5828923 C38.5728,42.8610462 35.9564308,44.6060308 33.0299077,45.8156308 C30.1048615,47.0252308 27.0801231,47.6300308 23.9579077,47.6300308 C20.8356923,47.6300308 17.8464,47.0333538 14.9907692,45.8363077 C12.1358769,44.6414769 9.57563077,42.9112615 7.31076923,40.6471385 C5.04590769,38.3830154 3.32307692,35.8294154 2.14153846,32.9878154 C0.96,30.1462154 0.369230769,27.1510154 0.369230769,24 C0.369230769,20.8770462 0.966646154,17.8744615 2.16221538,14.9907692 C3.35778462,12.1070769 5.09538462,9.52615385 7.37353846,7.24726154 C11.8744615,2.66289231 17.4018462,0.369230769 23.9564308,0.369230769 L23.9564308,0.369230769 Z M24.0420923,4.63163077 C18.6409846,4.63163077 14.0972308,6.51692308 10.4115692,10.2860308 C8.55433846,12.1713231 7.12689231,14.2877538 6.12849231,16.6368 C5.12861538,18.9858462 4.63015385,21.4404923 4.63015385,24.0007385 C4.63015385,26.5329231 5.12861538,28.9735385 6.12849231,31.3211077 C7.12763077,33.6716308 8.55433846,35.7673846 10.4115692,37.6098462 C12.2680615,39.4530462 14.3630769,40.8583385 16.6995692,41.8301538 C19.0338462,42.8004923 21.4818462,43.2856615 24.0420923,43.2856615 C26.5735385,43.2856615 29.0267077,42.7945846 31.4067692,41.8094769 C33.7838769,40.8236308 35.9268923,39.4043077 37.8409846,37.5478154 C41.5259077,33.9470769 43.3676308,29.4321231 43.3676308,24.0014769 C43.3676308,21.3851077 42.8891077,18.9097846 41.9328,16.5747692 C40.9779692,14.2397538 39.5844923,12.1587692 37.7575385,10.3288615 C33.9574154,6.53095385 29.3870769,4.63163077 24.0420923,4.63163077 L24.0420923,4.63163077 Z M23.7459692,20.0765538 L20.5801846,21.7225846 C20.2419692,21.0203077 19.8276923,20.5270154 19.3358769,20.2456615 C18.8433231,19.9650462 18.3862154,19.824 17.9638154,19.824 C15.8547692,19.824 14.7987692,21.216 14.7987692,24.0014769 C14.7987692,25.2672 15.0660923,26.2788923 15.6,27.0387692 C16.1346462,27.7986462 16.9225846,28.1789538 17.9638154,28.1789538 C19.3425231,28.1789538 20.3128615,27.5032615 20.8763077,26.1533538 L23.7873231,27.6302769 C23.1684923,28.7844923 22.3104,29.6913231 21.2130462,30.3522462 C20.1171692,31.0139077 18.9068308,31.344 17.5842462,31.344 C15.4744615,31.344 13.7715692,30.6978462 12.4777846,29.4025846 C11.184,28.1088 10.5371077,26.3084308 10.5371077,24.0022154 C10.5371077,21.7513846 11.1913846,19.9657846 12.4992,18.6432 C13.8070154,17.3213538 15.4596923,16.6596923 17.4579692,16.6596923 C20.3844923,16.6582154 22.4795077,17.7976615 23.7459692,20.0765538 L23.7459692,20.0765538 Z M37.3757538,20.0765538 L34.2528,21.7225846 C33.9153231,21.0203077 33.4995692,20.5270154 33.0077538,20.2456615 C32.5144615,19.9650462 32.0425846,19.824 31.5943385,19.824 C29.4845538,19.824 28.4285538,21.216 28.4285538,24.0014769 C28.4285538,25.2672 28.6966154,26.2788923 29.2305231,27.0387692 C29.7644308,27.7986462 30.5516308,28.1789538 31.5943385,28.1789538 C32.9715692,28.1789538 33.9426462,27.5032615 34.5046154,26.1533538 L37.4584615,27.6302769 C36.8123077,28.7844923 35.9394462,29.6913231 34.8435692,30.3522462 C33.7462154,31.0139077 32.5506462,31.344 31.2568615,31.344 C29.1182769,31.344 27.4102154,30.6978462 26.1312,29.4025846 C24.8492308,28.1088 24.2097231,26.3084308 24.2097231,24.0022154 C24.2097231,21.7513846 24.8632615,19.9657846 26.1725538,18.6432 C27.4796308,17.3213538 29.1323077,16.6596923 31.1298462,16.6596923 C34.0556308,16.6582154 36.1388308,17.7976615 37.3757538,20.0765538 L37.3757538,20.0765538 Z" id="Shape" fill="#FFFFFF"></path>
            </g>
        </g>
    </g>
</svg>