<?xml version="1.0" encoding="UTF-8" standalone="no"?>
<svg width="65px" height="65px" viewBox="0 0 65 65" version="1.1" xmlns="http://www.w3.org/2000/svg" xmlns:xlink="http://www.w3.org/1999/xlink" xmlns:sketch="http://www.bohemiancoding.com/sketch/ns">
    <!-- Generator: Sketch 3.2.2 (9983) - http://www.bohemiancoding.com/sketch -->
    <title>Untitled</title>
    <desc>Created with Sketch.</desc>
    <defs></defs>
    <g id="Page-1" stroke="none" stroke-width="1" fill="none" fill-rule="evenodd" sketch:type="MSPage">
        <g id="cc" sketch:type="MSLayerGroup" fill="#FFFFFF">
            <g id="Group" sketch:type="MSShapeGroup">
                <path d="M32.441,0.5 C41.392,0.5 49.013,3.625 55.298,9.872 C58.306,12.881 60.593,16.32 62.155,20.186 C63.716,24.053 64.499,28.157 64.499,32.5 C64.499,36.881 63.726,40.986 62.185,44.813 C60.642,48.641 58.365,52.023 55.357,54.956 C52.234,58.041 48.691,60.404 44.728,62.042 C40.767,63.68 36.671,64.499 32.443,64.499 C28.215,64.499 24.167,63.691 20.3,62.07 C16.434,60.452 12.967,58.109 9.9,55.043 C6.833,51.977 4.5,48.519 2.9,44.671 C1.3,40.823 0.5,36.767 0.5,32.5 C0.5,28.271 1.309,24.205 2.928,20.3 C4.547,16.395 6.9,12.9 9.985,9.814 C16.08,3.606 23.565,0.5 32.441,0.5 L32.441,0.5 Z M32.557,6.272 C25.243,6.272 19.09,8.825 14.099,13.929 C11.584,16.482 9.651,19.348 8.299,22.529 C6.945,25.71 6.27,29.034 6.27,32.501 C6.27,35.93 6.945,39.235 8.299,42.414 C9.652,45.597 11.584,48.435 14.099,50.93 C16.613,53.426 19.45,55.329 22.614,56.645 C25.775,57.959 29.09,58.616 32.557,58.616 C35.985,58.616 39.307,57.951 42.53,56.617 C45.749,55.282 48.651,53.36 51.243,50.846 C56.233,45.97 58.727,39.856 58.727,32.502 C58.727,28.959 58.079,25.607 56.784,22.445 C55.491,19.283 53.604,16.465 51.13,13.987 C45.984,8.844 39.795,6.272 32.557,6.272 L32.557,6.272 Z M32.156,27.187 L27.869,29.416 C27.411,28.465 26.85,27.797 26.184,27.416 C25.517,27.036 24.898,26.845 24.326,26.845 C21.47,26.845 20.04,28.73 20.04,32.502 C20.04,34.216 20.402,35.586 21.125,36.615 C21.849,37.644 22.916,38.159 24.326,38.159 C26.193,38.159 27.507,37.244 28.27,35.416 L32.212,37.416 C31.374,38.979 30.212,40.207 28.726,41.102 C27.242,41.998 25.603,42.445 23.812,42.445 C20.955,42.445 18.649,41.57 16.897,39.816 C15.145,38.064 14.269,35.626 14.269,32.503 C14.269,29.455 15.155,27.037 16.926,25.246 C18.697,23.456 20.935,22.56 23.641,22.56 C27.604,22.558 30.441,24.101 32.156,27.187 L32.156,27.187 Z M50.613,27.187 L46.384,29.416 C45.927,28.465 45.364,27.797 44.698,27.416 C44.03,27.036 43.391,26.845 42.784,26.845 C39.927,26.845 38.497,28.73 38.497,32.502 C38.497,34.216 38.86,35.586 39.583,36.615 C40.306,37.644 41.372,38.159 42.784,38.159 C44.649,38.159 45.964,37.244 46.725,35.416 L50.725,37.416 C49.85,38.979 48.668,40.207 47.184,41.102 C45.698,41.998 44.079,42.445 42.327,42.445 C39.431,42.445 37.118,41.57 35.386,39.816 C33.65,38.064 32.784,35.626 32.784,32.503 C32.784,29.455 33.669,27.037 35.442,25.246 C37.212,23.456 39.45,22.56 42.155,22.56 C46.117,22.558 48.938,24.101 50.613,27.187 L50.613,27.187 Z" id="Shape"></path>
            </g>
        </g>
    </g>
</svg>