<?xml version="1.0" encoding="UTF-8" standalone="no"?>
<svg width="355px" height="240px" viewBox="0 0 355 240" version="1.1" xmlns="http://www.w3.org/2000/svg" xmlns:xlink="http://www.w3.org/1999/xlink" xmlns:sketch="http://www.bohemiancoding.com/sketch/ns">
    <!-- Generator: Sketch 3.2.2 (9983) - http://www.bohemiancoding.com/sketch -->
    <title>Untitled</title>
    <desc>Created with Sketch.</desc>
    <defs></defs>
    <g id="Page-1" stroke="none" stroke-width="1" fill="none" fill-rule="evenodd" sketch:type="MSPage">
        <g id="state_machine" sketch:type="MSLayerGroup" transform="translate(10.000000, 11.000000)">
            <path d="M102.5,0.5 L334.5,0.5 L334.5,216.5 L102.5,216.5 L102.5,0.5 Z" id="Stroke-2" stroke="#1D5AAB" stroke-linecap="round" stroke-linejoin="round" stroke-dasharray="8,5" sketch:type="MSShapeGroup"></path>
            <text id="States-in-which-we-m" sketch:type="MSTextLayer" font-family="Helvetica" font-size="12" font-weight="normal" fill="#1D5AAB">
                <tspan x="129.7374" y="16.2019806">S</tspan>
                <tspan x="137.741306" y="16.2019806" letter-spacing="-0.0024">t</tspan>
                <tspan x="141.072891" y="16.2019806" letter-spacing="0.0024">a</tspan>
                <tspan x="147.749119" y="16.2019806" letter-spacing="-0.0024">t</tspan>
                <tspan x="151.080703" y="16.2019806" letter-spacing="0.0024">e</tspan>
                <tspan x="157.756931" y="16.2019806">s</tspan>
                <tspan x="163.756931" y="16.2019806" letter-spacing="-0.0024"> </tspan>
                <tspan x="167.088516" y="16.2019806" letter-spacing="0.0024">in</tspan>
                <tspan x="176.433159" y="16.2019806" letter-spacing="-0.0024"> </tspan>
                <tspan x="179.764744" y="16.2019806" letter-spacing="0.0024">whi</tspan>
                <tspan x="197.777803" y="16.2019806">c</tspan>
                <tspan x="203.777803" y="16.2019806" letter-spacing="0.0024">h</tspan>
                <tspan x="210.454031" y="16.2019806" letter-spacing="-0.0024"> </tspan>
                <tspan x="213.785616" y="16.2019806" letter-spacing="0.0024">we</tspan>
                <tspan x="229.130259" y="16.2019806" letter-spacing="-0.0024"> </tspan>
                <tspan x="232.461844" y="16.2019806">m</tspan>
                <tspan x="242.457938" y="16.2019806" letter-spacing="0.0024">igh</tspan>
                <tspan x="258.478809" y="16.2019806" letter-spacing="-0.0024">t </tspan>
                <tspan x="265.141978" y="16.2019806" letter-spacing="0.0024">need</tspan>
                <tspan x="291.846891" y="16.2019806" letter-spacing="-0.0024"> </tspan>
                <tspan x="295.178475" y="16.2019806" letter-spacing="0.0024">da</tspan>
                <tspan x="308.530931" y="16.2019806" letter-spacing="-0.0024">t</tspan>
                <tspan x="311.862516" y="16.2019806">a</tspan>
            </text>
            <path d="M247.3268,156.3538 L201.2604,134.4158" id="Stroke-5" stroke="#695F7E" stroke-linecap="round" stroke-linejoin="round" sketch:type="MSShapeGroup"></path>
            <path d="M194.0376,130.97609 L199.9705,137.12432 L202.5503,131.70723 L194.0376,130.97609 Z" id="Fill-7" fill="#695F7E" sketch:type="MSShapeGroup"></path>
            <path d="M194.0376,130.9761 L199.9705,137.1243 L202.5503,131.7072 L194.0376,130.9761 Z" id="Stroke-9" stroke="#695F7E" sketch:type="MSShapeGroup"></path>
            <path d="M254.5496,159.79348 L248.6167,153.64526 L246.0369,159.06235 L254.5496,159.79348 Z" id="Fill-10" fill="#695F7E" sketch:type="MSShapeGroup"></path>
            <path d="M254.5496,159.7935 L248.6167,153.6453 L246.0369,159.0623 L254.5496,159.7935 Z" id="Stroke-11" stroke="#695F7E" sketch:type="MSShapeGroup"></path>
            <path d="M201.2629,97.5574 L247.342,75.6462" id="Stroke-12" stroke="#695F7E" stroke-linecap="round" stroke-linejoin="round" sketch:type="MSShapeGroup"></path>
            <path d="M254.5668,72.2107 L246.0537,72.9369 L248.6303,78.3554 L254.5668,72.2107 Z" id="Fill-13" fill="#695F7E" sketch:type="MSShapeGroup"></path>
            <path d="M254.5668,72.2107 L246.0537,72.9369 L248.6303,78.3554 L254.5668,72.2107 Z" id="Stroke-14" stroke="#695F7E" sketch:type="MSShapeGroup"></path>
            <path d="M194.0381,100.9929 L202.5512,100.2667 L199.9746,94.8481 L194.0381,100.9929 Z" id="Fill-15" fill="#695F7E" sketch:type="MSShapeGroup"></path>
            <path d="M194.0381,100.9929 L202.5512,100.2667 L199.9746,94.8481 L194.0381,100.9929 Z" id="Stroke-16" stroke="#695F7E" sketch:type="MSShapeGroup"></path>
            <path d="M185.4929,93.0031 C198.185,105.6951 198.185,126.2729 185.4929,138.96494 C172.8009,151.65704 152.2231,151.65704 139.5311,138.96494 C126.839,126.2729 126.839,105.6951 139.5311,93.0031 C152.2231,80.311 172.8009,80.311 185.4929,93.0031" id="Fill-17" fill="#FFFFFF" sketch:type="MSShapeGroup"></path>
            <path d="M185.4929,93.0031 C198.185,105.6951 198.185,126.2729 185.4929,138.9649 C172.8009,151.657 152.2231,151.657 139.5311,138.9649 C126.839,126.2729 126.839,105.6951 139.5311,93.0031 C152.2231,80.311 172.8009,80.311 185.4929,93.0031" id="Stroke-18" stroke="#695F7E" stroke-linecap="round" stroke-linejoin="round" sketch:type="MSShapeGroup"></path>
            <text id="Loading" sketch:type="MSTextLayer" font-family="Helvetica Neue" font-size="12" font-weight="normal" fill="#000000">
                <tspan x="140.84" y="119.004081">Loading</tspan>
            </text>
            <path d="M309.0479,34.1842 C321.74,46.8762 321.74,67.454 309.0479,80.146 C296.3558,92.8381 275.778,92.8381 263.086,80.146 C250.3939,67.454 250.3939,46.8762 263.086,34.1842 C275.778,21.4921 296.3558,21.4921 309.0479,34.1842" id="Fill-19" fill="#FFFFFF" sketch:type="MSShapeGroup"></path>
            <path d="M309.0479,34.1842 C321.74,46.8762 321.74,67.454 309.0479,80.146 C296.3558,92.8381 275.778,92.8381 263.086,80.146 C250.3939,67.454 250.3939,46.8762 263.086,34.1842 C275.778,21.4921 296.3558,21.4921 309.0479,34.1842" id="Stroke-20" stroke="#695F7E" stroke-linecap="round" stroke-linejoin="round" sketch:type="MSShapeGroup"></path>
            <text id="Ready" sketch:type="MSTextLayer" font-family="Helvetica Neue" font-size="12" font-weight="normal" fill="#000000">
                <tspan x="268.9549" y="60.1851806">Ready</tspan>
            </text>
            <path d="M55.4929,93.0031 C68.185,105.6951 68.185,126.2729 55.4929,138.96494 C42.8009,151.65704 22.2231,151.65704 9.5311,138.96494 C-3.161,126.2729 -3.161,105.6951 9.5311,93.0031 C22.2231,80.311 42.8009,80.311 55.4929,93.0031" id="Fill-21" fill="#FFFFFF" sketch:type="MSShapeGroup"></path>
            <path d="M55.4929,93.0031 C68.185,105.6951 68.185,126.2729 55.4929,138.9649 C42.8009,151.657 22.2231,151.657 9.5311,138.9649 C-3.161,126.2729 -3.161,105.6951 9.5311,93.0031 C22.2231,80.311 42.8009,80.311 55.4929,93.0031" id="Stroke-22" stroke="#695F7E" stroke-linecap="round" stroke-linejoin="round" sketch:type="MSShapeGroup"></path>
            <text id="Empty" sketch:type="MSTextLayer" font-family="Helvetica Neue" font-size="12" font-weight="normal" fill="#000000">
                <tspan x="15.28" y="121.004081">Empty</tspan>
            </text>
            <path d="M119.612,116.0006 L65.512,116.0215" id="Stroke-23" stroke="#695F7E" stroke-linecap="round" stroke-linejoin="round" sketch:type="MSShapeGroup"></path>
            <path d="M127.612,115.9975 L119.6108,113.0006 L119.6131,119.0006 L127.612,115.9975 Z" id="Fill-24" fill="#695F7E" sketch:type="MSShapeGroup"></path>
            <path d="M127.612,115.9975 L119.6108,113.0006 L119.6131,119.0006 L127.612,115.9975 Z" id="Stroke-25" stroke="#695F7E" sketch:type="MSShapeGroup"></path>
            <path d="M309.0479,151.82195 C321.74,164.51398 321.74,185.09181 309.0479,197.78384 C296.3558,210.47594 275.778,210.47594 263.086,197.78384 C250.3939,185.09181 250.3939,164.51398 263.086,151.82195 C275.778,139.12986 296.3558,139.12986 309.0479,151.82195" id="Fill-26" fill="#FFFFFF" sketch:type="MSShapeGroup"></path>
            <path d="M309.0479,151.822 C321.74,164.514 321.74,185.0918 309.0479,197.7838 C296.3558,210.4759 275.778,210.4759 263.086,197.7838 C250.3939,185.0918 250.3939,164.514 263.086,151.822 C275.778,139.1299 296.3558,139.1299 309.0479,151.822" id="Stroke-27" stroke="#695F7E" stroke-linecap="round" stroke-linejoin="round" sketch:type="MSShapeGroup"></path>
            <text id="Error" sketch:type="MSTextLayer" font-family="Helvetica Neue" font-size="12" font-weight="normal" fill="#000000">
                <tspan x="272.9629" y="177.822981">Error</tspan>
            </text>
        </g>
    </g>
</svg>